<svg width="16" height="16" viewBox="0 0 16 16" fill="none" xmlns="http://www.w3.org/2000/svg">
<path fill-rule="evenodd" clip-rule="evenodd" d="M0.707107 14.8492C0.316582 14.4587 0.316582 13.8256 0.707107 13.435L13.435 0.707107C13.8256 0.316583 14.4587 0.316583 14.8492 0.707107C15.2398 1.09763 15.2398 1.7308 14.8492 2.12132L2.12132 14.8492C1.7308 15.2398 1.09763 15.2398 0.707107 14.8492Z" fill="#A0A0A4"/>
<path fill-rule="evenodd" clip-rule="evenodd" d="M14.8495 14.8494C15.2401 14.4588 15.2401 13.8257 14.8495 13.4352L2.12161 0.707229C1.73109 0.316705 1.09792 0.316705 0.707398 0.707229C0.316874 1.09775 0.316875 1.73092 0.707398 2.12144L13.4353 14.8494C13.8258 15.2399 14.459 15.2399 14.8495 14.8494Z" fill="#A0A0A4"/>
</svg>
