<svg width="15" height="16" viewBox="0 0 15 16" fill="none" xmlns="http://www.w3.org/2000/svg">
<path fill-rule="evenodd" clip-rule="evenodd" d="M0 3C0 2.72386 0.223858 2.5 0.5 2.5H14.5C14.7761 2.5 15 2.72386 15 3C15 3.27614 14.7761 3.5 14.5 3.5H0.5C0.223858 3.5 0 3.27614 0 3Z" fill="black"/>
<path fill-rule="evenodd" clip-rule="evenodd" d="M0.958403 2.5H14.0059L13.1411 13.6926C13.0405 14.9947 11.9546 16 10.6486 16H4.34639C3.04299 16 1.95829 14.9986 1.85435 13.6994L0.958403 2.5ZM2.0416 3.5L2.85117 13.6196C2.91353 14.3992 3.56435 15 4.34639 15H10.6486C11.4322 15 12.0837 14.3968 12.1441 13.6155L12.9256 3.5H2.0416Z" fill="black"/>
<path fill-rule="evenodd" clip-rule="evenodd" d="M10.5 3.5H4.5V1.46875C4.5 0.657582 5.15758 0 5.96875 0H9.03125C9.84242 0 10.5 0.657582 10.5 1.46875V3.5ZM5.96875 1C5.70987 1 5.5 1.20987 5.5 1.46875V2.5H9.5V1.46875C9.5 1.20987 9.29013 1 9.03125 1H5.96875Z" fill="black"/>
</svg>
