<svg width="16" height="16" viewBox="0 0 16 16" fill="none" xmlns="http://www.w3.org/2000/svg">
<circle cx="8" cy="8" r="7.5" stroke="#A0A0A4"/>
<path d="M7.88867 5.58691C7.62826 5.58691 7.41504 5.51042 7.24902 5.35742C7.08301 5.20117 7 5.01074 7 4.78613C7 4.55501 7.08301 4.36621 7.24902 4.21973C7.41504 4.07324 7.62826 4 7.88867 4C8.15234 4 8.36556 4.07324 8.52832 4.21973C8.69434 4.36621 8.77734 4.55501 8.77734 4.78613C8.77734 5.02051 8.69434 5.21257 8.52832 5.3623C8.36556 5.51204 8.15234 5.58691 7.88867 5.58691ZM8.65039 11.3779H7.10742V6.37793H8.65039V11.3779Z" fill="#A0A0A4"/>
</svg>
