<svg width="23" height="19" viewBox="0 0 23 19" fill="none" xmlns="http://www.w3.org/2000/svg">
<path fill-rule="evenodd" clip-rule="evenodd" d="M0 1.25C0 0.559644 0.559644 0 1.25 0H21.25C21.9404 0 22.5 0.559644 22.5 1.25C22.5 1.94036 21.9404 2.5 21.25 2.5H1.25C0.559644 2.5 0 1.94036 0 1.25Z" fill="white"/>
<path fill-rule="evenodd" clip-rule="evenodd" d="M0 9.25C0 8.55964 0.559644 8 1.25 8H21.25C21.9404 8 22.5 8.55964 22.5 9.25C22.5 9.94036 21.9404 10.5 21.25 10.5H1.25C0.559644 10.5 0 9.94036 0 9.25Z" fill="white"/>
<path fill-rule="evenodd" clip-rule="evenodd" d="M0 17.25C0 16.5596 0.559644 16 1.25 16H15.25C15.9404 16 16.5 16.5596 16.5 17.25C16.5 17.9404 15.9404 18.5 15.25 18.5H1.25C0.559644 18.5 0 17.9404 0 17.25Z" fill="white"/>
</svg>
