<svg width="20" height="21" viewBox="0 0 20 21" fill="none" xmlns="http://www.w3.org/2000/svg">
<path fill-rule="evenodd" clip-rule="evenodd" d="M7.99583 1.68333C4.50953 1.68333 1.68333 4.50954 1.68333 7.99583C1.68333 11.4821 4.50953 14.3083 7.99583 14.3083C11.4821 14.3083 14.3083 11.4821 14.3083 7.99583C14.3083 4.50954 11.4821 1.68333 7.99583 1.68333ZM0 7.99583C0 3.57986 3.57986 0 7.99583 0C12.4118 0 15.9917 3.57986 15.9917 7.99583C15.9917 12.4118 12.4118 15.9917 7.99583 15.9917C3.57986 15.9917 0 12.4118 0 7.99583Z" fill="white"/>
<path fill-rule="evenodd" clip-rule="evenodd" d="M12.0222 12.8792C12.3467 12.5463 12.8795 12.5395 13.2124 12.8639L19.2579 18.7556C19.5908 19.08 19.5977 19.6129 19.2733 19.9458C18.9488 20.2787 18.416 20.2855 18.0831 19.9611L12.0376 14.0694C11.7047 13.745 11.6978 13.2121 12.0222 12.8792Z" fill="white"/>
</svg>
