<svg width="19" height="16" viewBox="0 0 19 16" fill="none" xmlns="http://www.w3.org/2000/svg">
<path fill-rule="evenodd" clip-rule="evenodd" d="M2.09441 2.05857C1.32634 2.75224 0.827295 3.83284 1.05538 5.42928C1.28377 7.02783 2.32539 8.68522 3.86481 10.3478C5.31911 11.9184 7.17008 13.4437 9.06041 14.874C10.9507 13.4437 12.8017 11.9184 14.256 10.3478C15.7955 8.68521 16.8371 7.02783 17.0654 5.4293C17.2935 3.83285 16.7944 2.75224 16.0264 2.05856C15.2371 1.34572 14.1154 1 13.0604 1C11.1924 1 10.1528 2.08479 9.57813 2.68443C9.51854 2.7466 9.46396 2.80356 9.41396 2.85355C9.2187 3.04882 8.90212 3.04882 8.70686 2.85355C8.65686 2.80356 8.60228 2.7466 8.54269 2.68443C7.96803 2.08479 6.92843 1 5.06041 1C4.00541 1 2.8837 1.34573 2.09441 2.05857ZM1.42416 1.31643C2.43415 0.404274 3.81247 0 5.06041 0C7.13169 0 8.40585 1.11257 9.06041 1.77862C9.71497 1.11257 10.9891 0 13.0604 0C14.3084 0 15.6866 0.404275 16.6966 1.31644C17.7278 2.24776 18.3273 3.66715 18.0554 5.5707C17.7838 7.47217 16.5754 9.31479 14.9898 11.0272C13.396 12.7486 11.3668 14.3952 9.36041 15.9C9.18263 16.0333 8.93819 16.0333 8.76041 15.9C6.75398 14.3952 4.72488 12.7485 3.13105 11.0272C1.54548 9.31478 0.337104 7.47217 0.0654365 5.57072C-0.206532 3.66716 0.39295 2.24776 1.42416 1.31643Z" fill="black"/>
</svg>
